Coordinates
version=1
nRows=29
nColumns=22
inDegrees=yes

Units are S.I. units (second, meters, Newtons, ...)
If the header above contains a line with 'inDegrees', this indicates whether rotational values are in degrees (yes) or radians (no).

endheader
time	pelvis_tilt	pelvis_list	pelvis_rotation	pelvis_tx	pelvis_ty	pelvis_tz	hip_flexion_r	hip_adduction_r	hip_rotation_r	knee_angle_r	ankle_angle_r	subtalar_angle_r	hip_flexion_l	hip_adduction_l	hip_rotation_l	knee_angle_l	ankle_angle_l	subtalar_angle_l	lumbar_extension	lumbar_bending	lumbar_rotation
      2.33000000	      3.33158393	     -2.79429022	    -26.86055588	     -0.52330205	      0.89476767	     -0.11773262	     -9.73878554	      4.47580866	     -6.03044443	    -13.61769964	     23.33916096	     -7.16559937	     26.41853246	     -5.05679541	     -8.29276426	    -33.80476631	      7.70000059	     -1.21660221	    -13.15540349	     -1.18527288	      7.08841670
      2.34000000	      3.46460442	     -2.72354176	    -27.00508908	     -0.51667889	      0.89377258	     -0.11461080	    -10.34651388	      4.26927612	     -5.88888095	    -13.65675776	     23.64859073	     -6.95525492	     26.20460632	     -4.91403491	     -9.45504613	    -31.52046352	      7.40361492	     -0.35486251	    -13.26236852	     -1.24821645	      7.14218814
      2.35000000	      3.60232043	     -2.65382875	    -27.15839525	     -0.51000132	      0.89271896	     -0.11154064	    -10.91030429	      4.04842873	     -5.73760264	    -13.79160291	     23.98932378	     -6.77490332	     25.99562603	     -4.74103769	    -10.56990077	    -29.44695737	      7.09397927	      0.35421839	    -13.38094096	     -1.30826682	      7.15115255
      2.36000000	      3.75276004	     -2.58746283	    -27.28670422	     -0.50312626	      0.89166721	     -0.10852207	    -11.52916620	      3.82484406	     -5.60462911	    -13.86586098	     24.24542130	     -6.55116855	     25.76976535	     -4.50758604	    -11.50711364	    -27.57853988	      6.81401708	      1.18765712	    -13.49831131	     -1.36294536	      7.17467829
      2.37000000	      3.89299813	     -2.51034209	    -27.43254211	     -0.49620895	      0.89054035	     -0.10552708	    -12.05871064	      3.58244469	     -5.47062906	    -14.08372947	     24.56050730	     -6.40028857	     25.60079905	     -4.26967703	    -12.37933490	    -26.01514525	      6.53051293	      1.68955287	    -13.60346483	     -1.42280931	      7.15611790
      2.38000000	      4.05365945	     -2.44152576	    -27.55882022	     -0.48909243	      0.88945209	     -0.10251930	    -12.66424460	      3.34457557	     -5.33822693	    -14.22360278	     24.80817229	     -6.21322032	     25.41692246	     -4.00577833	    -13.06746614	    -24.71485024	      6.30289592	      2.22504204	    -13.71616226	     -1.48852744	      7.15049296
      2.39000000	      4.15902703	     -2.33461485	    -27.71137244	     -0.48189681	      0.88824735	     -0.09950751	    -13.13140084	      3.08343271	     -5.20892618	    -14.49416651	     25.11715846	     -6.11400587	     25.34339630	     -3.74456423	    -13.62681780	    -23.74129044	      6.06854611	      2.43463877	    -13.74530819	     -1.56716084	      7.16136174
      2.40000000	      4.34892889	     -2.27608993	    -27.85825085	     -0.47452577	      0.88721574	     -0.09643054	    -13.73009233	      2.82922981	     -5.07443038	    -14.73854676	     25.31240048	     -5.96606363	     25.17602007	     -3.50533390	    -14.08572801	    -23.07015201	      5.90672015	      2.68285316	    -13.87576718	     -1.65082896	      7.13710824
      2.41000000	      4.47565312	     -2.17972188	    -28.02576399	     -0.46700256	      0.88609282	     -0.09331629	    -14.22766614	      2.56197713	     -4.92690279	    -15.03604613	     25.54208066	     -5.84813016	     25.10048591	     -3.27146943	    -14.38006946	    -22.69279346	      5.75698192	      2.76120250	    -13.90285842	     -1.74662766	      7.15701208
      2.42000000	      4.58487691	     -2.08066079	    -28.20859707	     -0.45931181	      0.88498557	     -0.09013542	    -14.69604722	      2.29514548	     -4.77098993	    -15.37071453	     25.74038080	     -5.74455783	     25.04009718	     -3.05836883	    -14.54546345	    -22.58415333	      5.64154787	      2.74116082	    -13.89079959	     -1.84983025	      7.20088906
      2.43000000	      4.67397077	     -1.96907969	    -28.41231120	     -0.45144600	      0.88388840	     -0.08688907	    -15.12529598	      2.01779254	     -4.59895230	    -15.74627892	     25.91302583	     -5.64150712	     24.99010272	     -2.85534067	    -14.58915916	    -22.71329949	      5.54954773	      2.62974181	    -13.83311645	     -1.96666631	      7.27561489
      2.44000000	      4.70894163	     -1.86162294	    -28.62263196	     -0.44342111	      0.88277483	     -0.08360133	    -15.48281285	      1.76836224	     -4.40950380	    -16.17601963	     26.06494681	     -5.58266351	     24.97514362	     -2.67766826	    -14.46610021	    -23.05040992	      5.47290130	      2.51766562	    -13.70794831	     -2.05959467	      7.36719129
      2.45000000	      4.74583187	     -1.69795304	    -28.87271527	     -0.43514017	      0.88172087	     -0.08021948	    -15.80888378	      1.44351519	     -4.23179130	    -16.63596496	     26.11853536	     -5.43303737	     24.93395275	     -2.46391099	    -14.37433288	    -23.53105454	      5.42729074	      2.03901484	    -13.52038040	     -2.22499624	      7.50421299
      2.46000000	      4.71811271	     -1.50346383	    -29.12438265	     -0.42666506	      0.88064402	     -0.07681583	    -16.03673251	      1.11832429	     -4.04259453	    -17.14828394	     26.17071956	     -5.36086344	     24.93063794	     -2.23052799	    -14.14455854	    -24.11024062	      5.34097220	      1.74769602	    -13.22997323	     -2.39292982	      7.66899182
      2.47000000	      4.65959822	     -1.28260516	    -29.37976182	     -0.41797704	      0.87962383	     -0.07340405	    -16.19855709	      0.77460119	     -3.85621062	    -17.71749593	     26.11873247	     -5.24309878	     24.93393150	     -1.97513466	    -13.88806640	    -24.76324702	      5.27616951	      1.22129550	    -12.87487819	     -2.57215140	      7.83838076
      2.48000000	      4.59898463	     -1.07681000	    -29.60236642	     -0.40907897	      0.87873690	     -0.07004355	    -16.35345201	      0.44749811	     -3.69322046	    -18.32393113	     25.95109876	     -5.02069256	     24.91236661	     -1.70395128	    -13.57149004	    -25.46989387	      5.29161268	      0.40118850	    -12.51869488	     -2.72476592	      7.97851240
      2.49000000	      4.53443614	     -0.79786146	    -29.82746656	     -0.39994615	      0.87797318	     -0.06669446	    -16.43711209	      0.04222955	     -3.53622664	    -18.99447534	     25.69013325	     -4.78157771	     24.88395417	     -1.35198344	    -13.29081522	    -26.15242469	      5.26154988	     -0.31723799	    -12.09615491	     -2.94796512	      8.13986028
      2.50000000	      4.48599233	     -0.48537858	    -30.02767070	     -0.39060787	      0.87739615	     -0.06339805	    -16.48351896	     -0.40339161	     -3.38654120	    -19.73506638	     25.28759953	     -4.47591964	     24.83524605	     -0.93995286	    -13.02331817	    -26.82197776	      5.25993075	     -1.07054784	    -11.66200375	     -3.20745101	      8.28350523
      2.51000000	      4.46574751	     -0.14081004	    -30.19481286	     -0.38106780	      0.87704512	     -0.06017796	    -16.49715826	     -0.89111524	     -3.23644355	    -20.55127976	     24.70054974	     -4.07325212	     24.75811529	     -0.46404830	    -12.77817587	    -27.46994904	      5.31837050	     -1.85034805	    -11.23109862	     -3.50227460	      8.40391428
      2.52000000	      4.47868165	      0.26022856	    -30.34401276	     -0.37137421	      0.87691291	     -0.05699279	    -16.43660540	     -1.44626213	     -3.06407344	    -21.49597990	     23.97456724	     -3.73205198	     24.65246245	      0.08310797	    -12.59608272	    -28.07827684	      5.38206775	     -2.41108227	    -10.79651504	     -3.86969972	      8.49876646
      2.53000000	      4.53933113	      0.60303208	    -30.43520125	     -0.36153914	      0.87710782	     -0.05389614	    -16.39561521	     -1.95710349	     -2.88356201	    -22.51878487	     22.91463776	     -3.05877098	     24.44965247	      0.63186381	    -12.35255082	    -28.65609016	      5.63263193	     -3.16285308	    -10.45033836	     -4.19627452	      8.60629655
      2.54000000	      4.63719629	      0.97714407	    -30.51536617	     -0.35162923	      0.87754049	     -0.05081185	    -16.25073127	     -2.51158878	     -2.65631652	    -23.72803689	     21.66416520	     -2.45809259	     24.17310746	      1.21829233	    -12.18733514	    -29.15118992	      5.88698818	     -3.59919206	    -10.12575929	     -4.57737682	      8.69909246
      2.55000000	      4.76414243	      1.34087409	    -30.57589609	     -0.34168907	      0.87821507	     -0.04775253	    -16.00256881	     -3.06127834	     -2.37557939	    -25.13067985	     20.16466211	     -1.84315597	     23.79698033	      1.80422002	    -12.07307854	    -29.54329056	      6.18919073	     -3.85205616	     -9.84514788	     -4.96650303	      8.78125948
      2.56000000	      4.90414136	      1.68847802	    -30.62719832	     -0.33178646	      0.87909193	     -0.04471389	    -15.60996107	     -3.59119874	     -2.02170671	    -26.75834299	     18.42958860	     -1.25963126	     23.31873102	      2.36959956	    -12.02486896	    -29.80392413	      6.52218641	     -3.91446509	     -9.60086451	     -5.35069123	      8.85300353
      2.57000000	      5.04085401	      2.01482823	    -30.67236591	     -0.32198124	      0.88011581	     -0.04170569	    -15.03562273	     -4.08815854	     -1.60481145	    -28.63729219	     16.48920938	     -0.72556696	     22.74846305	      2.89699571	    -12.05604171	    -29.92406188	      6.87681385	     -3.81318368	     -9.38607228	     -5.71595895	      8.90350875
      2.58000000	      5.16527972	      2.33291755	    -30.73297162	     -0.31234529	      0.88121810	     -0.03870602	    -14.23849708	     -4.56414840	     -1.12872273	    -30.79463897	     14.44756662	     -0.54954280	     22.10202354	      3.37799202	    -12.22495567	    -29.89911358	      7.23979160	     -3.64158248	     -9.18676481	     -6.07333364	      8.93074296
      2.59000000	      5.25227449	      2.61585712	    -30.77734725	     -0.30293439	      0.88234312	     -0.03580146	    -13.21660051	     -4.97098898	     -0.61686561	    -33.20622570	     12.28326200	     -0.00642598	     21.41179162	      3.81274146	    -12.38114186	    -29.75130766	      7.62060795	     -3.25611724	     -9.01017671	     -6.37565705	      8.92532266
      2.60000000	      5.34860620	      2.91135515	    -30.85845812	     -0.29377775	      0.88345389	     -0.03290644	    -11.97721114	     -5.40617382	     -0.12393738	    -35.87937984	     10.23947081	     -0.02401281	     20.65404673	      4.23109782	    -12.69860027	    -29.47394339	      8.00819911	     -2.99323964	     -8.86686437	     -6.70290657	      8.89400115
      2.61000000	      5.36915266	      3.18697869	    -30.93432375	     -0.28493993	      0.88442271	     -0.03010096	    -10.47832120	     -5.77266414	      0.35984590	    -38.76485697	      8.31322150	      0.07102159	     19.94017992	      4.59111516	    -13.00423265	    -29.13577431	      8.40072195	     -2.48900693	     -8.70467868	     -6.96608856	      8.81533825
